<svg id="Groupe_9677" data-name="Groupe 9677" xmlns="http://www.w3.org/2000/svg" width="158.004" height="59.381" viewBox="0 0 158.004 59.381">
  <g id="Groupe_9679" data-name="Groupe 9679">
    <path id="Tracé_16549" data-name="Tracé 16549" d="M9.272,0a12.091,12.091,0,0,1,3.344.405,9.489,9.489,0,0,1,2.229.937q.836.532,1.52,1.064a4.106,4.106,0,0,0,.785.557,3.132,3.132,0,0,0,.836-.583,13.805,13.805,0,0,1,1.419-1.064A7.883,7.883,0,0,1,21.356.431,8.472,8.472,0,0,1,24.143,0a8.255,8.255,0,0,1,3.724.836,9.651,9.651,0,0,1,3.065,2.229,10.391,10.391,0,0,1,2,3.243,11.243,11.243,0,0,1,.709,3.927V36.1L25.612,36V10.108a1.9,1.9,0,0,0-.709-1.52,2.491,2.491,0,0,0-1.7-.608,2.427,2.427,0,0,0-1.672.608,1.973,1.973,0,0,0-.709,1.52V36.151H12.793V10.26a1.9,1.9,0,0,0-.709-1.52,2.537,2.537,0,0,0-1.7-.608,2.416,2.416,0,0,0-1.7.608,1.973,1.973,0,0,0-.709,1.52V36.3H0V10.285a10.24,10.24,0,0,1,1.267-4.94A10.515,10.515,0,0,1,4.661,1.6,9.339,9.339,0,0,1,9.272,0" fill="#adadad"/>
    <path id="Tracé_16550" data-name="Tracé 16550" d="M143.2,22.451h7.651V45.783H143.2Zm.228-5.9a3.4,3.4,0,0,1,1.14-2.635,3.84,3.84,0,0,1,2.66-1.013,3.578,3.578,0,0,1,2.584,1.115,3.836,3.836,0,0,1,1.039,2.685,3.346,3.346,0,0,1-1.14,2.533,3.7,3.7,0,0,1-2.609,1.039,3.47,3.47,0,0,1-2.584-1.115,3.462,3.462,0,0,1-1.089-2.609" transform="translate(-106.923 -9.632)" fill="#adadad"/>
    <path id="Tracé_16551" data-name="Tracé 16551" d="M184.8,20.34V.2h7.6V13.12h3.091v7.22h-1.875a1.276,1.276,0,0,0-1.165.76,4.218,4.218,0,0,0-.405,1.9,7.707,7.707,0,0,0,.532,2.736A3.847,3.847,0,0,0,194,27.687q.3.152.836.456t.684.38v7.625a17.586,17.586,0,0,1-1.824-.405,17.114,17.114,0,0,1-3.116-1.267,11.624,11.624,0,0,1-3.243-2.407,7.517,7.517,0,0,1-1.723-3.42,20.883,20.883,0,0,1-.684-4.155c-.076-1.368-.127-2.761-.127-4.155" transform="translate(-137.984 -0.149)" fill="#adadad"/>
    <path id="Tracé_16552" data-name="Tracé 16552" d="M254.181,73.8a20.833,20.833,0,0,1-2.128.38,20.062,20.062,0,0,1-2.153.127,10.858,10.858,0,0,1-8.233-3.319,12.164,12.164,0,0,1-3.167-8.715,10.9,10.9,0,0,1,3.344-8.284,12.031,12.031,0,0,1,8.664-3.192,14.782,14.782,0,0,1,1.849.127,10.871,10.871,0,0,1,1.8.405v7.473c-.735-.177-1.343-.329-1.849-.405a9.467,9.467,0,0,0-1.343-.127,5.026,5.026,0,0,0-3.521,1.115,4.374,4.374,0,0,0,.076,6.181,5.028,5.028,0,0,0,3.5,1.165q.608,0,1.368-.076c.507-.076,1.089-.152,1.8-.253Z" transform="translate(-178.08 -37.931)" fill="#adadad"/>
    <path id="Tracé_16553" data-name="Tracé 16553" d="M312.3,36.224V.2h7.575V12.816c0,.405.228.608.709.608a7.811,7.811,0,0,0,1.191-.152,8.112,8.112,0,0,1,.988-.177,6.691,6.691,0,0,1,1.165-.051,11.173,11.173,0,0,1,3.395.532,10.094,10.094,0,0,1,3.192,1.647,11.142,11.142,0,0,1,3.395,3.825A10.7,10.7,0,0,1,335,24.064V36.275h-7.473V23.405a2.624,2.624,0,0,0-1.241-2.28,4.682,4.682,0,0,0-2.787-.887,4.107,4.107,0,0,0-2.609.937,2.843,2.843,0,0,0-1.089,2.305V36.224Z" transform="translate(-233.184 -0.149)" fill="#adadad"/>
    <path id="Tracé_16554" data-name="Tracé 16554" d="M422.652,73.281c0,.152-.253.2-.811.2a8.894,8.894,0,0,1-3.9-.912,12.03,12.03,0,0,1-5.877-6.156,11.221,11.221,0,0,1-.963-4.332,12.437,12.437,0,0,1,1.52-6,11.4,11.4,0,0,1,4.155-4.408A10.992,10.992,0,0,1,422.5,50a11.962,11.962,0,0,1,5.8,1.469,11.734,11.734,0,0,1,4.307,4.1,11.615,11.615,0,0,1,1.773,5.725,16.815,16.815,0,0,1-.2,2.407c-.127.887-.228,1.545-.329,2H422.931V60.589h2.787c.228,0,.355-.1.355-.3a2.014,2.014,0,0,0-.405-1.039,3.348,3.348,0,0,0-.861-.912,3.739,3.739,0,0,0-2.052-.583,4.134,4.134,0,0,0-2.229.633,3.479,3.479,0,0,0-1.419,1.723,3.981,3.981,0,0,0,.861,4.256,3.8,3.8,0,0,0,1.545,1.14,4.989,4.989,0,0,0,1.14.253Z" transform="translate(-306.955 -37.333)" fill="#adadad"/>
    <path id="Tracé_16555" data-name="Tracé 16555" d="M525.271,36.825a23.149,23.149,0,0,1-3.5-.355,12.1,12.1,0,0,1-4.332-1.52,11.1,11.1,0,0,1-2.432-1.976,10.329,10.329,0,0,1-1.7-2.609,13.152,13.152,0,0,1-.811-2.255,9.512,9.512,0,0,1-.2-2.255V.7h7.727V24.133a12.723,12.723,0,0,0,.1,1.9,4.434,4.434,0,0,0,.456,1.343,3.458,3.458,0,0,0,2.255,1.647,9.781,9.781,0,0,0,2.407.405v7.4Z" transform="translate(-382.517 -0.523)" fill="#adadad"/>
    <path id="Tracé_16556" data-name="Tracé 16556" d="M585.371,36.825a22.856,22.856,0,0,1-3.5-.355,12.1,12.1,0,0,1-4.332-1.52,12.455,12.455,0,0,1-2.432-1.976,9.645,9.645,0,0,1-1.672-2.609,11.279,11.279,0,0,1-.811-2.255,9.363,9.363,0,0,1-.228-2.255V.7h7.727V24.133a12.186,12.186,0,0,0,.127,1.9,4.434,4.434,0,0,0,.456,1.343,3.448,3.448,0,0,0,2.28,1.647,9.6,9.6,0,0,0,2.407.405v7.4Z" transform="translate(-427.392 -0.523)" fill="#adadad"/>
    <path id="Tracé_16557" data-name="Tracé 16557" d="M128.271,179.313a2.856,2.856,0,0,1,.811-1.8,8.285,8.285,0,0,1,2.609-1.723,16.686,16.686,0,0,1,4.433-1.191c.481-.051.76-.1.887-.1a2.08,2.08,0,0,1,1.343.431,2.786,2.786,0,0,1,.785,1.419,3.328,3.328,0,0,1-1.317,1.343,4.812,4.812,0,0,1-2.255.659,2.1,2.1,0,0,0-.279-.329.622.622,0,0,1-.228-.38c0-.177.152-.405.481-.633-.431.076-.912.2-1.419.329a14.124,14.124,0,0,0-1.469.456,4.726,4.726,0,0,0-1.216.684,1.461,1.461,0,0,0-.583.963c.076.2.405.355,1.013.507.608.127,1.292.279,2.1.481a6.054,6.054,0,0,1,1.723.633,2.7,2.7,0,0,1,1.419,2.179A5.445,5.445,0,0,1,136,185.9a6.736,6.736,0,0,1-2,1.748,14.653,14.653,0,0,1-3.116,1.444,9.97,9.97,0,0,1-3.091.583,3.479,3.479,0,0,1-1.723-.355,1.945,1.945,0,0,1-1.267-1.773,2.672,2.672,0,0,1,.456-1.419,4.212,4.212,0,0,1,1.241-1.267,4.339,4.339,0,0,1,1.672-.76.878.878,0,0,1,.355.3,1.951,1.951,0,0,1,.177.481,3.327,3.327,0,0,0-1.089.785,2.539,2.539,0,0,0-.583,1.165c.1.177.329.253.735.253a10.632,10.632,0,0,0,3.243-.735,8.122,8.122,0,0,0,1.571-.633,3.672,3.672,0,0,0,1.165-.988,2.588,2.588,0,0,0,.557-1.393c-.051-.2-.355-.405-.937-.583-.608-.152-1.343-.38-2.2-.633a6.265,6.265,0,0,1-2.1-1.039,2.2,2.2,0,0,1-.785-1.773" transform="translate(-93.184 -130.293)" fill="#adadad"/>
    <path id="Tracé_16558" data-name="Tracé 16558" d="M177.229,186.023a12.967,12.967,0,0,0-.481,1.216c-.1.279-.253.659-.431,1.115s-.355.912-.557,1.368-.355.861-.507,1.191a1.14,1.14,0,0,1-.2.051,1.2,1.2,0,0,1-.608-.253,3.634,3.634,0,0,1-.557-.481c-.532-.253-.785-.557-.785-.887.583-1.216,1.292-2.635,2.2-4.332.3-.583.659-1.216,1.039-1.9s.684-1.216.912-1.571a2.837,2.837,0,0,1,.456-.608.481.481,0,0,1,.228-.076.876.876,0,0,1,.3.076c.127.051.228.076.3.1a.763.763,0,0,0,.355-.1,1.271,1.271,0,0,1,.355-.076.318.318,0,0,1,.279.152c-.1.228-.3.633-.583,1.241s-.583,1.267-.937,2.027c-.355.811-.608,1.368-.785,1.748m1.621-6.46a1.581,1.581,0,0,1-.279-.937,2.081,2.081,0,0,1,.329-1.165,1.717,1.717,0,0,1,.861-.735l.329-.025a.87.87,0,0,1,.861.937,1.976,1.976,0,0,1-.279.912,2.98,2.98,0,0,1-.659.811,1.287,1.287,0,0,1-.785.329,2.23,2.23,0,0,1-.38-.127" transform="translate(-129.248 -131.936)" fill="#adadad"/>
    <path id="Tracé_16559" data-name="Tracé 16559" d="M196.916,200.865a.435.435,0,0,1-.405-.2.667.667,0,0,0-.355-.253,1.078,1.078,0,0,0-.431-.1c-.177,0-.3-.025-.355-.1a.28.28,0,0,1-.127-.253,4.605,4.605,0,0,1,.431-1.571c.253-.633.659-1.495,1.216-2.609.532-1.089.912-1.849,1.14-2.305a4.562,4.562,0,0,0,.431-1.191,3.814,3.814,0,0,0-1.216.583,11.049,11.049,0,0,0-1.165,1.039,13.334,13.334,0,0,0-.912,1.039c-.228.3-.532.659-.887,1.115-.127.355-.431.937-.861,1.849-.431.887-.988,1.925-1.672,3.091a.866.866,0,0,1-.431-.076,1.344,1.344,0,0,1-.228-.279.88.88,0,0,0-.177-.279.857.857,0,0,0-.405-.177,2.948,2.948,0,0,1-.38-.152A.367.367,0,0,1,190,199.7c.076-.152.253-.532.557-1.191q.456-.95.836-1.748c.253-.532.532-1.064.785-1.621.279-.557.507-1.013.709-1.343.684-1.469,1.14-2.381,1.292-2.736.177-.355.3-.583.405-.76a.22.22,0,0,1,.177-.1.56.56,0,0,1,.38.2c.177.152.279.2.329.2a2.974,2.974,0,0,0,.405-.1,1.035,1.035,0,0,1,.405-.1.267.267,0,0,1,.253.1,2.358,2.358,0,0,1-.228.608,8.865,8.865,0,0,1-.456.785q.3-.19.684-.456l.76-.456a4.755,4.755,0,0,1,.76-.3,2.487,2.487,0,0,1,.735-.127,1.972,1.972,0,0,1,1.165.405,1.715,1.715,0,0,1,.659,1.444,10.486,10.486,0,0,1-1.545,4.256c-.431.76-.735,1.368-.963,1.849s-.405.861-.557,1.191c-.177.329-.355.709-.633,1.165" transform="translate(-141.867 -142.016)" fill="#adadad"/>
    <path id="Tracé_16560" data-name="Tracé 16560" d="M230.379,198.373a2.285,2.285,0,0,1-.279-1.267,6.146,6.146,0,0,1,.405-2.1,8.944,8.944,0,0,1,1.267-2.356A9.439,9.439,0,0,1,234,190.52a9.561,9.561,0,0,1,3.217-1.419,2.153,2.153,0,0,1,.557-.1,2.2,2.2,0,0,1,.988.253c.3.177.481.329.532.532a.467.467,0,0,1,.3-.127,1.1,1.1,0,0,1,.709.3,2.442,2.442,0,0,1,.532.633c0,.177-.2.481-.608.937a15.875,15.875,0,0,1-1.343,1.267,2.353,2.353,0,0,1-.963.608c.025,0-.025,0-.177-.051-.127-.025-.228-.051-.253-.051l-.253-.532a1.839,1.839,0,0,1-.355-.152.437.437,0,0,1-.2-.355c.1-.177.2-.38.3-.557.1-.152.228-.355.38-.557a6.349,6.349,0,0,1,.583-.633,5.068,5.068,0,0,0-2.457,1.444,12.552,12.552,0,0,0-2.229,2.888,5.649,5.649,0,0,0-.912,2.584.926.926,0,0,0,.253.735,1.516,1.516,0,0,0,.887.253,3.553,3.553,0,0,0,2.153-.887,5.626,5.626,0,0,0,1.672-2.077.613.613,0,0,1,.1.329.9.9,0,0,1-.025.152,1.1,1.1,0,0,0-.025.127.276.276,0,0,0-.025.127c0,.025.051.1.1.279a1.134,1.134,0,0,1,.1.507,4.155,4.155,0,0,1-.887,1.6,4.715,4.715,0,0,1-1.495,1.115,4.393,4.393,0,0,1-1.748.405,3.45,3.45,0,0,1-3.04-1.723" transform="translate(-171.808 -141.12)" fill="#adadad"/>
    <path id="Tracé_16561" data-name="Tracé 16561" d="M264.455,200.6a2.866,2.866,0,0,1-.355-1.469,6.68,6.68,0,0,1,.557-2.559,9.913,9.913,0,0,1,1.6-2.584,8.5,8.5,0,0,1,2.508-2,6.917,6.917,0,0,1,3.192-.785,2.2,2.2,0,0,1,1.571.735,2.316,2.316,0,0,1,.583,1.571,2.656,2.656,0,0,1-.38,1.368,5.04,5.04,0,0,1-2.052,1.723,11.434,11.434,0,0,1-2.432.988,9.793,9.793,0,0,1-2.761.532,3.932,3.932,0,0,0-.177.887.848.848,0,0,0,.557.785,2.543,2.543,0,0,0,.735.1,5.126,5.126,0,0,0,2.28-.608,4.065,4.065,0,0,0,1.824-1.748c.076.051.1.253.1.659a1.1,1.1,0,0,0,.253.253c.152.127.228.228.228.279a3.416,3.416,0,0,1-1.089,1.6,6.315,6.315,0,0,1-1.976,1.14,6.529,6.529,0,0,1-2.2.431,2.466,2.466,0,0,1-2.559-1.292m7.6-7.068a.977.977,0,0,0-.785-.253,3.1,3.1,0,0,0-.887.152,7.138,7.138,0,0,0-1.849,1.013,6.6,6.6,0,0,0-1.419,1.647l1.368-.3c.684-.2,1.191-.329,1.495-.405a7.137,7.137,0,0,0,1.6-.811c.38-.279.583-.532.583-.785a.552.552,0,0,0-.1-.253" transform="translate(-197.195 -142.763)" fill="#adadad"/>
    <path id="Tracé_16562" data-name="Tracé 16562" d="M323.555,188.575a1.7,1.7,0,0,1-.785-.228.73.73,0,0,1-.253-.431.852.852,0,0,0-.228-.405,1.137,1.137,0,0,0-.431-.2,2.208,2.208,0,0,1-.431-.228.58.58,0,0,1-.127-.456c.279-.532.583-1.089.887-1.621.279-.532.583-1.064.861-1.621a2.245,2.245,0,0,1-.228.431c.253-.456.633-1.089,1.089-1.875s1.216-2.077,2.28-3.876,1.976-3.319,2.685-4.56a.715.715,0,0,1,.38-.1.817.817,0,0,1,.456.152,1.042,1.042,0,0,0,.3.177,2.389,2.389,0,0,0,.405-.076,2.23,2.23,0,0,1,.507-.1.32.32,0,0,1,.355.228c-.861,1.7-1.748,3.369-2.66,5.067-.937,1.7-1.6,2.913-2.027,3.648-.152.3-.456.887-.887,1.748s-.861,1.672-1.241,2.483c-.456.861-.735,1.444-.912,1.849" transform="translate(-239.904 -129.472)" fill="#adadad"/>
    <path id="Tracé_16563" data-name="Tracé 16563" d="M354.251,178.932c-.025-.2-.051-.38-.051-.481a4.868,4.868,0,0,1,.532-2.1,6.478,6.478,0,0,1,1.7-2.1,7.17,7.17,0,0,1,2.761-1.444,2.272,2.272,0,0,1,.785-.1,3.618,3.618,0,0,1,1.8.481,4.171,4.171,0,0,1,1.419,1.317,3.118,3.118,0,0,1,.557,1.773c0,.076-.025.228-.051.456a10.443,10.443,0,0,1-.887,2.888,12.068,12.068,0,0,1-1.444,2.229c-.557.659-1.267,1.444-2.179,2.381-.2.253-.507.583-.887,1.013-.38.405-.76.811-1.115,1.191a8.553,8.553,0,0,1-1.165,1.013,2.612,2.612,0,0,1-1.013.532,4,4,0,0,0-.355-.507c-.076-.1-.152-.228-.228-.355a2.443,2.443,0,0,1-.228-.507l5.219-5.523a15.355,15.355,0,0,1-2.533.3,3.231,3.231,0,0,1-1.267-.228,1.829,1.829,0,0,1-.861-.785,3.683,3.683,0,0,1-.507-1.444m5.4-4.357a4.454,4.454,0,0,0-2.027,1.292,9.128,9.128,0,0,0-1.343,2.457,1,1,0,0,0,.431.861,2.042,2.042,0,0,0,1.089.279,4.213,4.213,0,0,0,1.52-.279,3.7,3.7,0,0,0,1.267-.583.132.132,0,0,1,.1-.051c.051,0,.051.127.051.38q.038-.076.456-.836a8.645,8.645,0,0,0,.557-1.14,2,2,0,0,0,.127-.76,2.853,2.853,0,0,0-.481-1.444,1.608,1.608,0,0,0-1.013-.3,5.6,5.6,0,0,0-.735.127" transform="translate(-264.469 -128.949)" fill="#adadad"/>
    <path id="Tracé_16564" data-name="Tracé 16564" d="M392.456,176.991c.861-.659,1.6-1.191,2.179-1.6s1.089-.76,1.545-1.039.937-.557,1.393-.836c.481-.279,1.216-.735,2.255-1.393a1.276,1.276,0,0,1,.38-.127.2.2,0,0,1,.177.076.7.7,0,0,1,.152.2.566.566,0,0,0,.177.177,1.244,1.244,0,0,0,.3-.076,2.907,2.907,0,0,1,.355-.051c.152,0,.253.1.253.3l-4.155,7.6q.836.076,2.28.076c.051.025.051.076.051.127a.739.739,0,0,1-.152.38,1.05,1.05,0,0,0-.152.507,1.062,1.062,0,0,0,.228.355q.152.152.152.228a.583.583,0,0,1-.076.228l-3.445.025-2.483,5.295a1.21,1.21,0,0,1-.456-.1,1.013,1.013,0,0,1-.3-.253,1.447,1.447,0,0,0-.2-.2,1.263,1.263,0,0,0-.3-.076.656.656,0,0,1-.355-.1.345.345,0,0,1-.127-.3l1.925-4.231c-.456.025-1.039.1-1.773.152-.76.076-1.191.1-1.393.1a.446.446,0,0,1,.152-.025c.025-.025.025-.025.051-.025a7.676,7.676,0,0,1-1.013.2c-.684.152-1.216.253-1.672.329a.48.48,0,0,1-.2-.38.545.545,0,0,1,.152-.329.6.6,0,0,0,.152-.279,1.291,1.291,0,0,0-.1-.279.615.615,0,0,1-.1-.279.438.438,0,0,1,.152-.3c.456-.507,1.089-1.241,1.976-2.179a21.863,21.863,0,0,1,2.027-1.9m2.2.735c-.177.1-.659.507-1.469,1.14-.811.659-1.444,1.165-1.925,1.571.127,0,.709-.051,1.824-.127.177-.025.532-.025,1.089-.076.532-.025.811-.051.811-.051a.445.445,0,0,0,.152-.025l2.685-4.813c-.431.329-1.039.785-1.8,1.368-.785.557-1.216.912-1.368,1.013" transform="translate(-289.856 -128.427)" fill="#adadad"/>
    <path id="Tracé_16565" data-name="Tracé 16565" d="M440.021,174.427a9.793,9.793,0,0,0,1.216-.076c.405-.025.659-.051.785-.051.177,0,.532.025,1.013.051a.33.33,0,0,1,.3.38.927.927,0,0,1-.3.633.132.132,0,0,0-.051.1c0,.1.127.253.355.507.228.228.355.38.355.481,0,.127-.2.2-.583.2h-5.6l-2.2,3.243a7.09,7.09,0,0,1,2.533.405,3.76,3.76,0,0,1,1.7,1.115,2.584,2.584,0,0,1,.608,1.7A4.84,4.84,0,0,1,439.033,186a5.833,5.833,0,0,1-1.748,1.672,8.128,8.128,0,0,1-2.381,1.089,8.667,8.667,0,0,1-2.457.38,4.421,4.421,0,0,1-2.559-.684,2.27,2.27,0,0,1-.988-2,3.584,3.584,0,0,1,.532-.963,3.951,3.951,0,0,1,.836-.735,4.857,4.857,0,0,1,1.039-.481,2.711,2.711,0,0,1,.735.127,4.467,4.467,0,0,0,.836.127c-.1.076-.279.279-.532.532a6.088,6.088,0,0,0-.583.583,1.628,1.628,0,0,0-.329.456,1.531,1.531,0,0,0-.127.608c0,.076.025.177.051.355a2.942,2.942,0,0,0,1.115.177,4.523,4.523,0,0,0,1.849-.405,8.274,8.274,0,0,0,1.748-1.064,6.3,6.3,0,0,0,1.267-1.368,2.355,2.355,0,0,0,.456-1.317,1.242,1.242,0,0,0-.127-.583,2.557,2.557,0,0,0-1.191-.912,5.03,5.03,0,0,0-1.672-.279,5.725,5.725,0,0,0-1.773.279.381.381,0,0,1-.177-.228,1.123,1.123,0,0,1-.051-.329.867.867,0,0,0-.025-.279c-.025-.076-.127-.152-.3-.279-.152-.1-.253-.2-.253-.329a18.008,18.008,0,0,1,2.027-2.787c1.292-1.621,2.077-2.609,2.381-2.939a25.25,25.25,0,0,0,3.395,0" transform="translate(-320.245 -130.144)" fill="#adadad"/>
    <path id="Tracé_16566" data-name="Tracé 16566" d="M477.627,221.885a1.062,1.062,0,0,1-.127-.557,2.011,2.011,0,0,1,.279-.988,2.58,2.58,0,0,1,.785-.785,1.988,1.988,0,0,1,1.089-.355,1.545,1.545,0,0,1,.709.177,1.1,1.1,0,0,1,.481.481,1.321,1.321,0,0,1,.127.583,2.088,2.088,0,0,1-.279.988,2.411,2.411,0,0,1-.811.785,1.925,1.925,0,0,1-1.089.355,1.343,1.343,0,0,1-.709-.177,1.437,1.437,0,0,1-.456-.507" transform="translate(-356.533 -163.669)" fill="#adadad"/>
  </g>
</svg>
