<svg id="Groupe_9678" data-name="Groupe 9678" xmlns="http://www.w3.org/2000/svg" xmlns:xlink="http://www.w3.org/1999/xlink" width="257.023" height="63.916" viewBox="0 0 257.023 63.916">
  <defs>
    <clipPath id="clip-path">
      <rect id="Rectangle_1812" data-name="Rectangle 1812" width="257.023" height="63.916" fill="none"/>
    </clipPath>
  </defs>
  <path id="Tracé_16567" data-name="Tracé 16567" d="M0,0V63.743l257.023.173V0Z" transform="translate(0 0)" fill="#adadad"/>
  <g id="Groupe_9681" data-name="Groupe 9681">
    <g id="Groupe_9680" data-name="Groupe 9680" clip-path="url(#clip-path)">
      <path id="Tracé_16568" data-name="Tracé 16568" d="M289.844,59.129,275.45,80.444a8.193,8.193,0,1,1-6.841-12.671,13.14,13.14,0,0,1,1.464-.12,12.039,12.039,0,0,1,8.423,3.5l4.3-6.515a18.961,18.961,0,0,0-13.262-5.63c-9.259,0-17.739,7.64-17.739,16.88a16.83,16.83,0,0,0,16.847,16.7,17.266,17.266,0,0,0,12.065-5.036h9.915l.059,5.036h8.6V59.129h-9.441Zm-3.938,21.079,4.716-6.568.059,6.568h-4.775Z" transform="translate(-187.078 -43.839)" fill="#fff"/>
      <path id="Tracé_16569" data-name="Tracé 16569" d="M456.505,92.946h-8.6V67.3h-6.69V59.542l21.978-.056V67.3h-6.687Z" transform="translate(-327.811 -44.197)" fill="#fff"/>
      <path id="Tracé_16570" data-name="Tracé 16570" d="M558.86,59.486l-8.6,0-.06,12.492H540.042l-.064-12.495h-8.6v33.46h8.659V79.737h10.216V92.946h8.6V59.486Z" transform="translate(-394.805 -44.197)" fill="#fff"/>
      <path id="Tracé_16571" data-name="Tracé 16571" d="M710.59,59.488V75.059L698.764,59.488l-7.828.054-.059,12.2a16.867,16.867,0,0,0-33.092,4.5,18.172,18.172,0,0,0,2.327,8.59h-8.522V59.488h-8.765v33.46h20.039V88.266a17.729,17.729,0,0,0,11.766,4.682A17,17,0,0,0,690.877,80.8l.059,12.145H699.6V76.665l11.762,16.283h7.823l.011-33.46H710.59ZM674.629,84.775a8.529,8.529,0,1,1,8.663-8.531,8.567,8.567,0,0,1-8.663,8.531" transform="translate(-477.603 -44.198)" fill="#fff"/>
      <path id="Tracé_16572" data-name="Tracé 16572" d="M98.919,84.836V80.153h9.231l-.016-8.169H98.919V67.721h10.176l-.018-8.231-19.592.054V71.035A17.006,17.006,0,0,0,74.908,59.544L60.035,59.49V92.949H74.97A17.017,17.017,0,0,0,89.485,81.52V92.949h19.61l-.017-8.113H98.919Zm-18.932-3.5a5.291,5.291,0,0,1-5.017,3.908H69.474V67.3h5.495a5.22,5.22,0,0,1,5.017,3.972,15.489,15.489,0,0,1,.837,4.972,16.2,16.2,0,0,1-.837,5.094" transform="translate(-44.605 -44.2)" fill="#fff"/>
    </g>
  </g>
</svg>
